<svg width="40" height="44" viewBox="0 0 40 44" fill="none" xmlns="http://www.w3.org/2000/svg">
<path fill-rule="evenodd" clip-rule="evenodd" d="M3.90918 0.0907784C3.67291 0.135197 3.15904 0.326102 2.76727 0.514945C1.47638 1.13723 0.536975 2.30045 0.171574 3.72915C0.00343661 4.38675 0 4.68823 0 18.9353C0 33.1824 0.00343661 33.4839 0.171574 34.1415C0.596686 35.8035 1.73997 37.0273 3.43664 37.6364L3.99509 37.8368L16.6247 37.8917L17.0748 38.5594C18.371 40.4823 20.4963 42.1719 22.7505 43.0716C28.004 45.1684 34.0534 43.4636 37.4603 38.9262C40.8045 34.4721 40.85 28.4407 37.5733 23.9487C35.8829 21.6314 33.1464 19.7929 30.4357 19.1535L29.9847 19.0471L29.9808 14.8242C29.978 11.7249 29.9494 10.539 29.8734 10.3667C29.73 10.0414 20.3098 0.171196 20.0476 0.0715332C19.7664 -0.0353463 4.48344 -0.0171321 3.90918 0.0907784ZM18.8199 5.14582C18.8705 8.69045 18.88 8.77121 19.3449 9.59085C19.8275 10.4416 20.5807 11.0524 21.6147 11.4316C22.0923 11.6067 22.3085 11.6204 25.1519 11.655L28.1804 11.6919V18.7907L27.1945 18.7967C24.4609 18.8129 21.566 19.8546 19.4937 21.5677L19.0978 21.8949L7.03093 21.9424L6.78031 22.223C6.28647 22.7758 6.53305 23.5383 7.2599 23.7061C7.44891 23.7498 9.77835 23.7864 12.4363 23.7875C15.0944 23.7886 17.2691 23.8075 17.2691 23.8295C17.2691 23.8515 17.0498 24.2092 16.7816 24.6242C16.5135 25.0394 16.1643 25.6594 16.0057 26.0019L15.7174 26.6248H7.03188L6.78074 26.8759C6.43038 27.2263 6.43021 27.7136 6.78023 28.1055L7.03093 28.3861L15.1386 28.4339L15.0927 28.6248C14.8973 29.437 14.8312 30.1182 14.8326 31.3072C14.8345 33.0322 14.9954 33.9732 15.6078 35.8411C15.6553 35.9858 15.3751 35.992 9.86934 35.97L4.08101 35.9467L3.60787 35.7143C2.67216 35.2547 2.06121 34.4167 1.88714 33.3538C1.777 32.6814 1.777 5.1892 1.88714 4.51682C2.11216 3.14311 3.10371 2.10723 4.40113 1.89037C4.65037 1.8487 7.98589 1.81992 11.8134 1.82637L18.7726 1.83805L18.8199 5.14582ZM24.1482 6.90709L26.8372 9.74232L24.6285 9.76526C22.5374 9.78699 22.3971 9.7784 21.9943 9.6052C21.7603 9.5045 21.4159 9.25621 21.229 9.05344C20.6745 8.45195 20.6198 8.1326 20.6198 5.49635V3.21477L21.0395 3.64332C21.2704 3.87898 22.6694 5.34772 24.1482 6.90709ZM6.79398 17.6102C6.32024 18.084 6.47815 18.8323 7.1019 19.0694C7.22484 19.1162 9.31836 19.1501 12.0811 19.1501C17.3286 19.1501 17.2114 19.1615 17.4901 18.6228C17.6792 18.2569 17.589 17.843 17.2596 17.5658L16.9982 17.3459H7.05834L6.79398 17.6102ZM28.7037 20.7042C31.2306 21.0312 33.4325 22.1411 35.1849 23.9715C39.1121 28.0733 39.1431 34.539 35.2557 38.7379C34.7749 39.2572 33.7395 40.104 33.0304 40.5579C30.419 42.2295 26.7224 42.5955 23.6946 41.4823C20.494 40.3056 18.0184 37.6415 17.0663 34.3491C16.7331 33.1966 16.6393 32.3389 16.6927 30.932C16.7961 28.209 17.7568 25.9315 19.6296 23.9692C21.9949 21.4911 25.3779 20.2738 28.7037 20.7042ZM26.8633 26.9723C26.5369 27.2291 26.4631 27.6276 26.4626 29.1378L26.4621 30.491H25.0417C23.5111 30.491 23.1659 30.5622 22.9079 30.9307C22.7281 31.1872 22.7281 31.685 22.9079 31.9415C23.1657 32.3097 23.5115 32.3812 25.0348 32.3812H26.4482L26.4766 33.9062C26.5091 35.6486 26.5668 35.8253 27.1619 36.0036C27.4449 36.0884 27.5477 36.0814 27.8015 35.9603C28.2793 35.7324 28.3523 35.4467 28.3523 33.8015V32.3812L29.7054 32.3807C30.4497 32.3804 31.2056 32.3394 31.3853 32.2895C32.1206 32.0853 32.265 31.1203 31.6253 30.6855C31.4376 30.5579 31.1618 30.5295 29.884 30.5056L28.3658 30.4773L28.3093 27.2977L28.0287 27.0472C27.6826 26.7381 27.2004 26.7072 26.8633 26.9723Z" fill="#797A89"/>
</svg>
